  0
SECTION
  2
HEADER
  9
$ACADVER
  1
AC1009
  9
$FILLMODE
 70
 0
  9
$SPLFRAME
 70
 1
  9
$EXTMIN
 10
0
 20
0
 30
0.0
  9
$EXTMAX
 10
1058.33
 20
1058.33
 30
0.0
  0
ENDSEC
  0
SECTION
  2
TABLES
  0
TABLE
  2
LAYER
 70
1
  0
LAYER
  2
0
 70
     0
 62
     7
  6
CONTINUOUS
  0
ENDTAB
  0
ENDSEC
  0
SECTION
  2
ENTITIES
  0
LINE
  8
0
 62
     0
 10
0.0950846
 20
57.4075
 30
0.0
 11
100.108
 21
57.4075
 31
0.0
  0
LINE
  8
0
 62
     0
 10
100.108
 20
57.4075
 30
0.0
 11
100.108
 21
0.257693
 31
0.0
  0
LINE
  8
0
 62
     0
 10
100.108
 20
0.257693
 30
0.0
 11
0.0950846
 21
0.257693
 31
0.0
  0
LINE
  8
0
 62
     0
 10
0.0950846
 20
0.257693
 30
0.0
 11
0.0950846
 21
57.4075
 31
0.0
  0
LINE
  8
0
 62
     0
 10
26.4322
 20
16.7831
 30
0.0
 11
40.4315
 21
16.7831
 31
0.0
  0
LINE
  8
0
 62
     0
 10
40.4315
 20
16.7831
 30
0.0
 11
40.4315
 21
2.78364
 31
0.0
  0
LINE
  8
0
 62
     0
 10
40.4315
 20
2.78364
 30
0.0
 11
26.4322
 21
2.78364
 31
0.0
  0
LINE
  8
0
 62
     0
 10
26.4322
 20
2.78364
 30
0.0
 11
26.4322
 21
16.7831
 31
0.0
  0
LINE
  8
0
 62
     0
 10
45.4822
 20
16.7831
 30
0.0
 11
59.4815
 21
16.7831
 31
0.0
  0
LINE
  8
0
 62
     0
 10
59.4815
 20
16.7831
 30
0.0
 11
59.4815
 21
2.78364
 31
0.0
  0
LINE
  8
0
 62
     0
 10
59.4815
 20
2.78364
 30
0.0
 11
45.4822
 21
2.78364
 31
0.0
  0
LINE
  8
0
 62
     0
 10
45.4822
 20
2.78364
 30
0.0
 11
45.4822
 21
16.7831
 31
0.0
  0
LINE
  8
0
 62
     0
 10
64.5322
 20
16.7831
 30
0.0
 11
78.5315
 21
16.7831
 31
0.0
  0
LINE
  8
0
 62
     0
 10
78.5315
 20
16.7831
 30
0.0
 11
78.5315
 21
2.78364
 31
0.0
  0
LINE
  8
0
 62
     0
 10
78.5315
 20
2.78364
 30
0.0
 11
64.5322
 21
2.78364
 31
0.0
  0
LINE
  8
0
 62
     0
 10
64.5322
 20
2.78364
 30
0.0
 11
64.5322
 21
16.7831
 31
0.0
  0
LINE
  8
0
 62
     0
 10
83.5822
 20
16.7831
 30
0.0
 11
97.5815
 21
16.7831
 31
0.0
  0
LINE
  8
0
 62
     0
 10
97.5815
 20
16.7831
 30
0.0
 11
97.5815
 21
2.78364
 31
0.0
  0
LINE
  8
0
 62
     0
 10
97.5815
 20
2.78364
 30
0.0
 11
83.5822
 21
2.78364
 31
0.0
  0
LINE
  8
0
 62
     0
 10
83.5822
 20
2.78364
 30
0.0
 11
83.5822
 21
16.7831
 31
0.0
  0
LINE
  8
0
 62
     0
 10
26.4322
 20
35.833
 30
0.0
 11
40.4315
 21
35.833
 31
0.0
  0
LINE
  8
0
 62
     0
 10
40.4315
 20
35.833
 30
0.0
 11
40.4315
 21
21.8336
 31
0.0
  0
LINE
  8
0
 62
     0
 10
40.4315
 20
21.8336
 30
0.0
 11
26.4322
 21
21.8336
 31
0.0
  0
LINE
  8
0
 62
     0
 10
26.4322
 20
21.8336
 30
0.0
 11
26.4322
 21
35.833
 31
0.0
  0
LINE
  8
0
 62
     0
 10
45.4822
 20
35.833
 30
0.0
 11
59.4815
 21
35.833
 31
0.0
  0
LINE
  8
0
 62
     0
 10
59.4815
 20
35.833
 30
0.0
 11
59.4815
 21
21.8336
 31
0.0
  0
LINE
  8
0
 62
     0
 10
59.4815
 20
21.8336
 30
0.0
 11
45.4822
 21
21.8336
 31
0.0
  0
LINE
  8
0
 62
     0
 10
45.4822
 20
21.8336
 30
0.0
 11
45.4822
 21
35.833
 31
0.0
  0
LINE
  8
0
 62
     0
 10
64.5322
 20
35.833
 30
0.0
 11
78.5315
 21
35.833
 31
0.0
  0
LINE
  8
0
 62
     0
 10
78.5315
 20
35.833
 30
0.0
 11
78.5315
 21
21.8336
 31
0.0
  0
LINE
  8
0
 62
     0
 10
78.5315
 20
21.8336
 30
0.0
 11
64.5322
 21
21.8336
 31
0.0
  0
LINE
  8
0
 62
     0
 10
64.5322
 20
21.8336
 30
0.0
 11
64.5322
 21
35.833
 31
0.0
  0
LINE
  8
0
 62
     0
 10
83.5822
 20
35.833
 30
0.0
 11
97.5815
 21
35.833
 31
0.0
  0
LINE
  8
0
 62
     0
 10
97.5815
 20
35.833
 30
0.0
 11
97.5815
 21
21.8336
 31
0.0
  0
LINE
  8
0
 62
     0
 10
97.5815
 20
21.8336
 30
0.0
 11
83.5822
 21
21.8336
 31
0.0
  0
LINE
  8
0
 62
     0
 10
83.5822
 20
21.8336
 30
0.0
 11
83.5822
 21
35.833
 31
0.0
  0
LINE
  8
0
 62
     0
 10
26.4322
 20
54.8831
 30
0.0
 11
40.4315
 21
54.8831
 31
0.0
  0
LINE
  8
0
 62
     0
 10
40.4315
 20
54.8831
 30
0.0
 11
40.4315
 21
40.8838
 31
0.0
  0
LINE
  8
0
 62
     0
 10
40.4315
 20
40.8838
 30
0.0
 11
26.4322
 21
40.8838
 31
0.0
  0
LINE
  8
0
 62
     0
 10
26.4322
 20
40.8838
 30
0.0
 11
26.4322
 21
54.8831
 31
0.0
  0
LINE
  8
0
 62
     0
 10
83.5822
 20
54.8831
 30
0.0
 11
97.5815
 21
54.8831
 31
0.0
  0
LINE
  8
0
 62
     0
 10
97.5815
 20
54.8831
 30
0.0
 11
97.5815
 21
40.8838
 31
0.0
  0
LINE
  8
0
 62
     0
 10
97.5815
 20
40.8838
 30
0.0
 11
83.5822
 21
40.8838
 31
0.0
  0
LINE
  8
0
 62
     0
 10
83.5822
 20
40.8838
 30
0.0
 11
83.5822
 21
54.8831
 31
0.0
  0
ENDSEC
  0
EOF
